<svg width="19" height="20" viewBox="0 0 19 20" fill="none" xmlns="http://www.w3.org/2000/svg">
<path fill-rule="evenodd" clip-rule="evenodd" d="M18.1066 13.48C17.6623 13.1 17.4065 12.5446 17.4066 11.96V7.14C17.4066 3.19 13.8266 0 9.40657 0C4.98657 0 1.40657 3.19 1.40657 7.14V11.96C1.40661 12.5446 1.15084 13.1 0.706568 13.48C-0.803432 14.83 0.266568 17.13 2.40657 17.13H6.20657C6.69141 18.4804 7.97177 19.3811 9.40657 19.3811C10.8414 19.3811 12.1217 18.4804 12.6066 17.13H16.4066C18.5466 17.13 19.6166 14.83 18.1066 13.48ZM9.4066 17.8809C8.81139 17.8786 8.25051 17.6019 7.8866 17.1309H10.8866C10.5342 17.5944 9.98879 17.8708 9.4066 17.8809ZM16.4162 15.63C16.7798 15.6629 17.1259 15.468 17.2862 15.14C17.364 14.9424 17.2932 14.7173 17.1162 14.6C16.3628 13.9279 15.9272 12.9696 15.9162 11.96V7.14C15.9162 4.03 12.9962 1.5 9.4162 1.5C5.8362 1.5 2.9162 4.03 2.9162 7.14V11.96C2.90524 12.9696 2.46964 13.9279 1.7162 14.6C1.53552 14.7144 1.46028 14.9401 1.5362 15.14C1.6965 15.468 2.04264 15.6629 2.4062 15.63H16.4162Z" fill="black"/>
</svg>
